<svg xmlns="http://www.w3.org/2000/svg"><symbol id="rocket" viewBox="0 0 126 248"><path fill="#b4fff4" d="M114.6 183.7l-18.3-30.2c3.4-11.6 6-24.7 6-37.5q0-2.5-.1-5c-1.9-33.7-14.9-45.8-24.6-55.5C73 50.9 69.5 47 67 41.4v-.3a10.6 10.6 0 0 0 4-1.4 5.8 5.8 0 0 0 2.7-5.1l-.5-1.2c-.8-.8-3.1-1.3-6.9-1.4a21.2 21.2 0 0 1 .1-6.5c.1-1.2.1-1.2 1.8-1.4h.3a2.4 2.4 0 0 0 2-1.3c.7-1.3-.2-2.8-.7-3.7l-.2-.3-.2-.6c-2.6-6.5-4-11-4-13.5s-.7-4-1.3-4.4a1.6 1.6 0 0 0-1.6 0c-.3.2-1.4.8-1.4 4.4 0 1.7-.7 5.4-4 13.6l-.2.4-.2.3a5.8 5.8 0 0 0-1 2.7 2.3 2.3 0 0 0 .2 1 2.4 2.4 0 0 0 2 1.3h.3c1.7.2 1.7.2 1.8 1.4a31.7 31.7 0 0 1 .3 4 14.8 14.8 0 0 1-.2 2.5c-3.8.2-6.1.6-6.9 1.4l-.5 1.2a5.8 5.8 0 0 0 2.7 5.1 10.6 10.6 0 0 0 4.1 1.4v.3C57 47.1 53 51.1 48.3 55.7c-9.7 9.7-22.7 21.8-24.5 55.3q-.1 2.5-.1 5c0 12.8 2.7 25.8 6 37.5l-18.3 30.2L.3 247.9h12.5l11.7-40.8 19.6-16.4.7.3 2.2.7c.3 2 .7 4.2 1 5.5s.7 3.5 9.9 4.1v46.6h10.2v-46.6c9.7-.6 10.1-3.1 10.3-4.1s.6-3.5 1-5.5l2.2-.7.4-.2 19.5 16.3 11.7 40.8h12.5z"/></symbol></svg>